<svg width="1066" height="879" viewBox="0 0 1066 879" fill="none" xmlns="http://www.w3.org/2000/svg">
<g id="Desktop - 1">
<path id="apple" fill-rule="evenodd" clip-rule="evenodd" d="M535.925 360.447C546.027 353.503 557.328 348.408 569.625 345.58C596.595 339.377 626.236 338.234 651.874 347.834C643.805 353.047 636.411 359.117 629.84 365.905C629.2 365.746 628.545 365.619 627.876 365.527C617.755 364.131 608.418 371.205 607.023 381.327C606.401 385.832 607.458 390.182 609.715 393.745C609.261 394.618 608.818 395.497 608.386 396.381C607.468 396.104 606.517 395.894 605.538 395.759C595.416 394.364 586.08 401.437 584.684 411.559C583.416 420.754 589.138 429.301 597.785 431.835C597.687 432.618 597.596 433.404 597.513 434.192C591.311 436.48 586.54 442.026 585.574 449.032C584.273 458.469 590.334 467.223 599.364 469.495C599.716 471.15 600.105 472.792 600.529 474.42C596.25 477.253 593.164 481.841 592.408 487.324C591.013 497.445 598.087 506.782 608.208 508.177C610.64 508.513 613.026 508.359 615.268 507.792C615.669 508.412 616.076 509.028 616.489 509.64C614.945 511.918 613.887 514.576 613.486 517.485C612.091 527.607 619.165 536.943 629.286 538.339C633.432 538.911 637.446 538.061 640.837 536.163C641.854 536.988 642.885 537.798 643.93 538.593C643.847 538.998 643.776 539.408 643.719 539.824C642.323 549.946 649.397 559.282 659.518 560.677C665.264 561.47 670.757 559.532 674.688 555.858C683.942 559.493 693.753 562.123 703.967 563.605C691.081 596.899 668.744 621.38 634.854 629.175C620.725 632.425 606.471 632.409 592.646 629.561C581.463 638.161 568.656 644.401 554.536 647.649C524.481 654.562 499.769 644.321 477.967 624.308C488.515 616.436 497.818 606.998 505.529 596.341C512.948 595.103 519.162 589.38 520.656 581.56C521.34 577.979 520.942 574.441 519.691 571.286C520.308 569.835 520.899 568.371 521.463 566.894C521.929 567.022 522.403 567.132 522.886 567.224C532.921 569.141 542.611 562.56 544.529 552.524C546.446 542.488 539.865 532.798 529.829 530.881C529.769 530.87 529.708 530.858 529.648 530.847C529.608 530.84 529.568 530.833 529.528 530.826C529.55 530.538 529.571 530.249 529.591 529.959C537.386 529.035 544.027 523.176 545.579 515.055C547.496 505.02 540.915 495.33 530.879 493.412C529.527 493.154 528.181 493.05 526.859 493.088C526.711 492.421 526.558 491.755 526.4 491.092C533.466 489.591 539.294 484.001 540.735 476.461C542.652 466.425 536.071 456.735 526.035 454.818C521.956 454.038 517.933 454.663 514.467 456.354C517.875 453.692 520.371 449.831 521.246 445.249C523.163 435.213 516.582 425.523 506.546 423.606C500.509 422.453 494.598 424.375 490.428 428.273C490.21 428.064 489.991 427.854 489.772 427.646C490.931 425.776 491.773 423.666 492.21 421.376C494.127 411.34 487.546 401.651 477.51 399.733C470.577 398.408 463.808 401.141 459.654 406.266C450.664 401.65 441.061 398.051 431 395.623C446.686 379.909 467.126 369.155 489.307 364.054C503.427 360.806 517.673 360.823 531.49 363.673C531.587 363.599 531.685 363.524 531.782 363.449L530.111 317.134L545.823 316L535.925 360.447Z" fill="#E26262"/>
</g>
</svg>
