<svg width="1401" height="1400" viewBox="0 0 1401 1400" fill="none" xmlns="http://www.w3.org/2000/svg">
<g id="apple">
<path id="fruit" fill-rule="evenodd" clip-rule="evenodd" d="M814.837 920.163C815.854 920.988 816.885 921.798 817.93 922.592C817.847 922.998 817.776 923.408 817.718 923.824C816.323 933.946 823.397 943.282 833.518 944.677C839.264 945.47 844.757 943.532 848.688 939.857C857.942 943.493 867.753 946.123 877.967 947.605C865.081 980.899 842.744 1005.38 808.854 1013.17C794.725 1016.42 780.471 1016.41 766.646 1013.56C755.463 1022.16 742.656 1028.4 728.536 1031.65C698.481 1038.56 673.769 1028.32 651.967 1008.31C662.515 1000.44 671.818 990.998 679.529 980.341C686.948 979.103 693.162 973.38 694.656 965.56C695.34 961.979 694.942 958.441 693.691 955.286C694.308 953.835 694.899 952.371 695.463 950.894C695.929 951.022 696.403 951.132 696.886 951.224C706.921 953.141 716.611 946.56 718.529 936.524C720.446 926.488 713.865 916.798 703.829 914.881C703.729 914.862 703.629 914.844 703.528 914.826C703.55 914.538 703.571 914.249 703.591 913.959C711.386 913.035 718.027 907.176 719.578 899.055C721.496 889.02 714.915 879.33 704.879 877.412C703.527 877.154 702.181 877.05 700.859 877.088C700.711 876.421 700.558 875.755 700.4 875.092C707.466 873.591 713.294 868.001 714.735 860.461C716.652 850.425 710.071 840.735 700.035 838.818C695.956 838.038 691.933 838.663 688.467 840.354C691.875 837.692 694.371 833.831 695.246 829.249C697.163 819.213 690.582 809.523 680.546 807.606C674.509 806.453 668.598 808.374 664.428 812.273C664.21 812.063 663.991 811.854 663.772 811.646C664.93 809.776 665.773 807.666 666.21 805.376C668.127 795.34 661.546 785.65 651.51 783.733C644.576 782.408 637.808 785.141 633.654 790.266C624.664 785.65 615.061 782.051 605 779.623C620.686 763.909 641.126 753.155 663.307 748.053C677.427 744.806 691.673 744.823 705.49 747.673C716.681 739.071 729.496 732.829 743.625 729.58C770.595 723.376 800.236 722.234 825.874 731.834C817.805 737.047 810.411 743.117 803.84 749.905C803.2 749.746 802.545 749.619 801.876 749.527C791.755 748.131 782.418 755.205 781.023 765.327C780.401 769.832 781.458 774.182 783.715 777.745C783.261 778.618 782.818 779.496 782.386 780.381C781.468 780.104 780.517 779.894 779.537 779.759C769.416 778.364 760.08 785.437 758.684 795.559C757.416 804.754 763.138 813.301 771.785 815.835C771.687 816.618 771.596 817.404 771.513 818.192C765.311 820.48 760.54 826.025 759.574 833.032C758.273 842.468 764.334 851.223 773.364 853.495C773.716 855.149 774.104 856.792 774.529 858.42C770.25 861.253 767.164 865.841 766.408 871.324C765.013 881.445 772.087 890.782 782.208 892.177C784.64 892.513 787.026 892.359 789.268 891.792C789.669 892.412 790.076 893.028 790.489 893.64C788.945 895.917 787.887 898.575 787.486 901.485C786.091 911.607 793.165 920.943 803.286 922.339C807.432 922.91 811.446 922.061 814.837 920.163Z" fill="#E26262"/>
<path id="stick" d="M706.267 760.877L704.111 701.134L719.823 700L706.267 760.877Z" fill="#E26262"/>
</g>
</svg>
