<svg width="1920" height="183" viewBox="0 0 1920 183" fill="none" xmlns="http://www.w3.org/2000/svg">
<g id="Grass">
<g id="Group 1">
<path id="Vector 4" d="M14.5193 15.4643C12.127 31.172 -15.4767 68.8089 25.598 124.064C7.21773 145.986 12.5822 136.939 8.14824 126.591C-13.8205 75.3153 -1.1026 37.6599 14.5193 15.4643Z" fill="#54CA6E"/>
<path id="Vector 5" d="M45.7453 35.5224C43.3798 50.6786 31.0221 53.2768 -20.8158 122.947C-19.11 141.699 3.46551 133.413 5.90608 122.947C18.5725 68.6304 45.7453 58.4733 45.7453 35.5224Z" fill="#54CA6E"/>
</g>
<g id="Group 2">
<path id="Vector 3" d="M1427.07 3.20258C1426 14.0866 1407.23 56.063 1447.07 84.639C1445.95 97.7289 1424.97 91.9629 1422.57 84.639C1410.15 46.6287 1415.66 18.4141 1427.07 3.20258Z" fill="#54CA6E"/>
<path id="Vector 2" d="M1375.94 25.8416C1438.53 88.095 1404.64 79.7177 1419.18 106.473C1435.48 122.405 1432.06 115.029 1431.59 106.849C1429.88 77.3587 1406.12 44.5281 1375.94 25.8416Z" fill="#54CA6E"/>
<path id="Vector 10" d="M1748.36 31.0168C1758.75 84.4034 1744.37 68.4135 1742.53 87.0841C1745.33 100.846 1746.14 95.9016 1748.73 91.5671C1758.05 75.9399 1757.29 50.9825 1748.36 31.0168Z" fill="#54CA6E"/>
<path id="Vector 11" d="M1730.67 36.5724C1758.55 83.2714 1739.59 73.1074 1744.2 91.2945C1751.5 103.289 1750.58 98.3649 1751.55 93.4098C1755.02 75.5453 1745.84 52.3263 1730.67 36.5724Z" fill="#54CA6E"/>
<path id="Vector 8" d="M1438.87 22.696C1423 84.0723 1439.61 68.4157 1439.81 91.2037C1435.58 106.994 1435.19 100.883 1432.88 95.0695C1424.52 74.1119 1427.63 44.4297 1438.87 22.696Z" fill="#54CA6E"/>
<path id="Vector 4_2" d="M1299.74 17.956C1300.84 28.9467 1283.79 71.444 1320.62 98.0676C1322.12 111.259 1301.82 110.713 1298.78 103.743C1284.85 71.8792 1290.72 34.9146 1299.74 17.956Z" fill="#54CA6E"/>
<path id="Vector 5_2" d="M1352.26 45.7552C1348.11 51.911 1327.82 59.2122 1340.42 94.3853C1335.59 101.83 1324.53 97.5673 1324.43 92.6653C1323.95 67.2239 1337.26 51.9365 1352.26 45.7552Z" fill="#54CA6E"/>
<path id="Vector 9" d="M1325.82 42.2059C1323.65 51.2996 1318.3 53.1497 1330.9 88.3228C1326.06 95.7671 1313.83 90.896 1314.91 86.6028C1319.32 69.0541 1314.91 57.7952 1325.82 42.2059Z" fill="#54CA6E"/>
<path id="Vector 7" d="M1279.52 37.0095C1281.13 55.0042 1287.89 66.595 1306.14 84.6871C1303.51 93.1668 1291.71 92.0743 1290.29 87.3824C1284.92 69.6836 1275.61 53.4159 1279.52 37.0095Z" fill="#54CA6E"/>
<path id="Vector 6" d="M1329.92 23.1523C1286.99 88.6679 1315.37 82.6065 1301.52 109.888C1290.32 126.665 1293.16 115.801 1293.09 107.472C1292.81 77.4468 1308.63 43.23 1329.92 23.1523Z" fill="#54CA6E"/>
</g>
<g id="Group 8">
<path id="Vector 10_2" d="M1703.28 18C1700.71 28.8371 1704.62 75.5538 1657.59 89.6938C1654.34 102.671 1676.05 104.162 1680.72 97.9148C1704.96 65.4896 1709.05 36.4755 1703.28 18Z" fill="#54CA6E"/>
<path id="Vector 11_2" d="M1680.63 26.1457C1678.58 37.2123 1691.87 81.8873 1652.88 105.673C1650.23 118.939 1670.5 120.181 1674.14 113.371C1690.79 82.2363 1688.15 44.1694 1680.63 26.1457Z" fill="#54CA6E"/>
<path id="Vector 14" d="M1712.52 27.8468C1706.75 37.5146 1703.72 84.0262 1658.9 92.8074C1651.82 104.333 1670.4 112.529 1676.17 107.405C1702.58 83.9764 1713.31 47.3574 1712.52 27.8468Z" fill="#54CA6E"/>
<path id="Vector 13" d="M1664.73 40.1204C1666.67 48.1831 1689.36 74.463 1669.73 101.843C1671.93 111.562 1686.26 106.509 1686.7 100.857C1688.72 75.0143 1675.36 50.098 1664.73 40.1204Z" fill="#54CA6E"/>
<path id="Vector 12" d="M1765.04 40.6996C1761.23 50.6553 1765.07 56.0133 1730.62 80.2919C1730.38 90.5211 1745.01 94.2716 1746.75 89.5327C1753.89 70.1625 1765.27 62.6475 1765.04 40.6996Z" fill="#54CA6E"/>
</g>
<g id="Group 5">
<path id="Vector 3_2" d="M639.271 24.6912C637.714 36.521 658.116 65.1114 587.104 99.608C585.042 113.79 619.101 119.374 623.672 112.258C647.393 75.3255 648.323 43.9149 639.271 24.6912Z" fill="#54CA6E"/>
<path id="Vector 4_3" d="M613.103 50.319C617.218 60.9431 632.972 75.3331 591.377 133.688C596.152 146.505 626.149 137.191 626.603 129.303C628.963 88.3684 629.128 62.8135 613.103 50.319Z" fill="#54CA6E"/>
<path id="Vector 2_2" d="M676.09 22.7806C653.774 99.1366 635.319 68.2621 617.847 95.1687C612.318 114.847 622.726 116.133 630.602 109.806C658.994 86.9964 676.659 51.1493 676.09 22.7806Z" fill="#54CA6E"/>
</g>
<path id="Base" d="M1920 247H0V82.117C80.6947 88.6399 193.072 87.77 268.093 87.77C414.144 87.7701 771.601 49.5024 969.67 56.9651C1127.95 62.9287 1386.48 82.117 1920 56.9651V247Z" fill="#54CA6E"/>
</g>

</svg>
