<svg width="1401" height="1401" viewBox="0 0 1401 1401" fill="none" xmlns="http://www.w3.org/2000/svg">
<g id="hand" clip-path="url(#clip0)">
<g id="palm">
<path id="palm_2" fill-rule="evenodd" clip-rule="evenodd" d="M781.676 544.38C785.963 542.139 789.307 535.636 791.701 526.641C874.061 522.271 893.567 495.643 888.262 432.054C903.057 381.269 915.057 325.769 740.978 267.279C737.217 266.016 733.562 264.869 730.007 263.836C710.159 253.363 690.195 246.108 669.388 238.545C608.243 216.322 539.812 191.45 445.602 74.5161C381.834 118.945 343.142 261.649 362.175 339.435C380.075 412.593 430.197 427.635 522.123 455.221C527.939 456.966 533.923 458.762 540.076 460.626C548.673 461.172 556.898 461.378 564.794 461.24C608.913 508.335 648.953 515.007 708.094 524.861L708.1 524.862C709.892 525.161 711.701 525.462 713.529 525.768C720.706 526.15 727.614 526.463 734.259 526.704C749.25 543.758 768.091 551.482 781.676 544.38Z" fill="#C4C4C4"/>
</g>
<g id="index-finger">
<path id="Union" fill-rule="evenodd" clip-rule="evenodd" d="M703.086 669.188C694.444 672.914 683.537 680.968 669.319 695.51C651.351 713.888 656.002 738.22 661.423 758.425C667.173 779.851 684.626 761.565 701.084 744.321C703.071 742.24 705.042 740.175 706.977 738.196C712.429 732.619 719.346 727.419 725.922 722.474C733.206 716.998 740.072 711.836 744.067 706.825C751.983 700.698 757.071 686.867 763.069 670.561C764.049 667.895 765.054 665.162 766.1 662.387C769.497 653.369 774.608 644.001 779.467 635.093C787.428 620.5 794.714 607.145 792.682 598.602C800.366 577.263 792.349 562.67 769.187 520.507C768.033 518.405 766.84 516.235 765.611 513.992C679.303 356.573 632.002 424.267 614.526 475.992C634.859 522.72 639.526 527.471 654.808 543.03C660.663 548.991 668.075 556.537 678.522 568.637C688.928 580.689 694.908 589.929 699.709 597.347L699.71 597.348C704.973 605.479 708.818 611.422 715.523 616.478C713.049 621.913 710.516 628.04 707.92 634.93C703.713 646.098 702.187 658.108 703.086 669.188Z" fill="#C4C4C4"/>
</g>
<g id="ring-finger">
<path id="Union_2" fill-rule="evenodd" clip-rule="evenodd" d="M1109.03 557.27C1116.5 562.397 1130.37 568.329 1154.14 575.645C1184.49 584.987 1218.66 578.161 1224.41 559.484C1226.13 553.9 1225.1 549.502 1222 545.83C1222.02 544.663 1221.91 543.439 1221.66 542.157C1151.65 501.778 1127.01 494.134 1106.17 487.67C1086.71 481.633 1070.57 476.626 1023.89 446.946C790.678 298.662 825.214 447.571 867.861 498.203C878.644 500.218 888.035 501.95 896.479 503.507C944.885 512.432 962.188 515.623 1032.31 533.691C1039.35 539.062 1053.46 545.312 1078.92 553.148C1088.93 556.227 1099.35 557.55 1109.03 557.27Z" fill="#C4C4C4"/>
</g>
<g id="pink-finger">
<path id="finger_1" fill-rule="evenodd" clip-rule="evenodd" d="M1118.96 367.61C1121.85 367.514 1124.82 367.366 1127.88 367.136C1129.7 366.998 1131.57 366.853 1133.46 366.705C1166.46 364.135 1207.53 360.937 1194.56 385.723C1194.44 385.953 1194.32 386.183 1194.2 386.414C1194.21 392.203 1190.43 397.666 1183.75 402.639C1172.24 417.353 1155.36 430.133 1130.86 431.981C1101.75 434.177 1085.06 433.084 1075.92 429.847C976.705 439.645 959.311 445.135 938.828 451.6C925.881 455.686 911.699 460.162 874.839 466.362C809.129 432.399 601.787 266.777 951.543 355.515C1012.82 371.063 1030.17 369.592 1053.4 367.621C1068.37 366.352 1085.78 364.875 1118.96 367.61Z" fill="#C4C4C4"/>
</g>
<g id="middle-finger">
<path id="finger_2" fill-rule="evenodd" clip-rule="evenodd" d="M980.881 771.366C990.563 780.73 1001.75 782.211 1016.06 773.266C1004.04 714.287 1000.78 682.551 998.502 660.4C995.499 631.18 994.211 618.639 976.788 582.245C978.008 568.219 974.254 551.937 965.258 536.811C957.933 524.497 948.276 514.869 937.974 508.682C799.582 266.32 765.722 429.431 764.827 491.542C811.272 505.54 846.424 517.542 879.227 559.41C881.143 567.05 884.312 574.821 888.766 582.308C894.023 591.147 900.482 598.602 907.519 604.393C910.989 611.074 914.462 618.209 917.95 625.838C917.568 635.888 918.919 647.191 922.216 658.758C927.682 677.935 937.311 693.675 947.898 702.661C948.2 703.547 948.502 704.437 948.805 705.332C950.413 710.081 952.001 714.658 953.583 719.046C953.62 750.631 967.126 765.433 980.881 771.366Z" fill="#C4C4C4"/>
</g>
<g id="thumb">
<path id="thumb_2" fill-rule="evenodd" clip-rule="evenodd" d="M378.765 520.764C385.738 547.702 400.401 581.405 421.218 615.751C491.742 705.375 533.158 732.751 544.875 697.655C554.47 668.918 543.282 651.604 529.72 630.616C521.148 617.349 511.627 602.615 505.806 582.599C500.901 565.731 495.727 551.04 490.383 538.267C492.947 529.969 495.519 521.025 498.215 511.648C516.978 446.395 541.762 360.201 611.954 325.392C601.579 298.65 590.08 273.098 577.425 249.974L518.331 52.4107C514.381 39.2065 507.989 27.5738 499.843 17.7719C466.679 26.8965 421.908 37.0995 361.978 48.599C338.099 56.0379 316.344 62.639 296.538 68.4733C290.758 102.026 296.794 141.915 309.613 179.327C332.867 225.878 336.746 267.569 338.333 299.713C337.171 313.476 336.27 328.15 335.563 343.744C340.37 369.037 342.917 390.277 345.184 409.179C350.283 451.701 353.963 482.39 378.765 520.764Z" fill="#C4C4C4"/>
</g>
</g>
<defs>
<clipPath id="clip0">
<rect width="1400" height="1400" fill="white" transform="translate(0.441345 0.730957)"/>
</clipPath>
</defs>
</svg>
