<svg width="1067" height="880" viewBox="0 0 1067 880" fill="none" xmlns="http://www.w3.org/2000/svg">
<g id="hand" clip-path="url(#clip0)">
<g id="palm">
<path id="palm_2" fill-rule="evenodd" clip-rule="evenodd" d="M609.117 584.111C613.404 581.87 616.748 575.367 619.142 566.372C701.503 562.002 721.008 535.374 715.704 471.785C730.499 421 742.499 365.5 568.419 307.01C564.658 305.747 561.003 304.599 557.449 303.567C537.6 293.094 517.637 285.839 496.83 278.276C435.684 256.053 367.254 231.181 273.043 114.247C209.276 158.676 170.583 301.38 189.616 379.166C207.517 452.324 257.639 467.366 349.564 494.952C355.38 496.697 361.364 498.493 367.518 500.357C376.114 500.903 384.339 501.109 392.235 500.971C436.355 548.066 476.394 554.738 535.536 564.592L535.542 564.593C537.334 564.892 539.143 565.193 540.97 565.499C548.148 565.88 555.055 566.194 561.701 566.435C576.691 583.489 595.532 591.213 609.117 584.111Z" fill="#C4C4C4"/>
</g>
<g id="index-finger">
<path id="Union" fill-rule="evenodd" clip-rule="evenodd" d="M530.527 708.919C521.886 712.645 510.979 720.699 496.76 735.241C478.792 753.619 483.443 777.951 488.865 798.156C494.614 819.582 512.067 801.296 528.526 784.052C530.512 781.971 532.484 779.906 534.419 777.927C539.871 772.35 546.787 767.15 553.364 762.205C560.647 756.729 567.513 751.567 571.508 746.556C579.425 740.429 584.512 726.598 590.51 710.292C591.491 707.626 592.496 704.893 593.541 702.118C596.939 693.1 602.049 683.731 606.909 674.824C614.869 660.231 622.155 646.876 620.124 638.333C627.807 616.994 619.79 602.401 596.628 560.238C595.474 558.136 594.282 555.966 593.052 553.723C506.744 396.304 459.444 463.998 441.968 515.723C462.3 562.451 466.967 567.202 482.249 582.761C488.104 588.722 495.516 596.268 505.964 608.368C516.369 620.42 522.349 629.66 527.151 637.078L527.151 637.079C532.414 645.21 536.26 651.153 542.964 656.209C540.49 661.644 537.958 667.771 535.362 674.661C531.154 685.829 529.629 697.839 530.527 708.919Z" fill="#C4C4C4"/>
</g>
<g id="ring-finger">
<path id="Union_2" fill-rule="evenodd" clip-rule="evenodd" d="M936.467 597.001C943.938 602.127 957.815 608.06 981.585 615.376C1011.94 624.718 1046.1 617.892 1051.85 599.215C1053.57 593.631 1052.54 589.233 1049.44 585.561C1049.46 584.394 1049.35 583.17 1049.11 581.888C979.094 541.509 954.451 533.864 933.613 527.401C914.152 521.364 898.01 516.357 851.331 486.677C618.12 338.392 652.656 487.302 695.303 537.934C706.086 539.949 715.476 541.681 723.921 543.238C772.326 552.163 789.63 555.354 859.75 573.422C866.795 578.793 880.906 585.043 906.366 592.879C916.37 595.958 926.788 597.28 936.467 597.001Z" fill="#C4C4C4"/>
</g>
<g id="pink-finger">
<path id="finger_1" fill-rule="evenodd" clip-rule="evenodd" d="M946.399 407.341C949.287 407.245 952.264 407.097 955.319 406.867C957.146 406.729 959.012 406.584 960.904 406.436C993.904 403.866 1034.97 400.668 1022 425.454C1021.88 425.684 1021.76 425.914 1021.64 426.145C1021.65 431.934 1017.87 437.397 1011.19 442.37C999.68 457.084 982.799 469.864 958.299 471.712C929.187 473.908 912.501 472.815 903.357 469.578C804.146 479.376 786.752 484.866 766.269 491.331C753.322 495.417 739.141 499.893 702.28 506.093C636.57 472.13 429.229 306.508 778.985 395.246C840.265 410.794 857.611 409.323 880.841 407.352C895.808 406.083 913.219 404.606 946.399 407.341Z" fill="#C4C4C4"/>
</g>
<g id="middle-finger">
<path id="finger_2" fill-rule="evenodd" clip-rule="evenodd" d="M808.323 811.097C818.004 820.461 829.189 821.942 843.501 812.997C831.48 754.018 828.219 722.282 825.943 700.131C822.941 670.911 821.652 658.37 804.23 621.976C805.45 607.95 801.696 591.668 792.699 576.542C785.374 564.228 775.717 554.6 765.416 548.413C627.023 306.051 593.164 469.162 592.268 531.273C638.713 545.271 673.865 557.273 706.668 599.141C708.585 606.781 711.754 614.552 716.207 622.039C721.464 630.878 727.923 638.332 734.96 644.124C738.43 650.805 741.903 657.94 745.391 665.569C745.009 675.619 746.36 686.922 749.658 698.489C755.124 717.666 764.752 733.406 775.339 742.392C775.641 743.278 775.944 744.168 776.247 745.063C777.854 749.811 779.443 754.389 781.025 758.777C781.062 790.362 794.568 805.164 808.323 811.097Z" fill="#C4C4C4"/>
</g>
<g id="thumb">
<path id="thumb_2" fill-rule="evenodd" clip-rule="evenodd" d="M206.206 560.495C213.179 587.433 227.843 621.136 248.659 655.482C319.184 745.106 360.599 772.482 372.317 737.386C381.911 708.649 370.724 691.335 357.162 670.347C348.589 657.08 339.068 642.346 333.247 622.33C328.343 605.462 323.169 590.771 317.824 577.998C320.388 569.7 322.96 560.756 325.656 551.379C344.419 486.126 369.204 399.932 439.396 365.123C429.021 338.381 417.521 312.829 404.867 289.705L345.772 92.1416C341.822 78.9374 335.43 67.3047 327.284 57.5028C294.121 66.6274 249.349 76.8305 189.419 88.3299C165.541 95.7689 143.785 102.37 123.979 108.204C118.199 141.757 124.235 181.646 137.054 219.058C160.308 265.609 164.188 307.3 165.775 339.444C164.612 353.207 163.712 367.881 163.004 383.475C167.812 408.768 170.359 430.008 172.625 448.91C177.724 491.432 181.404 522.12 206.206 560.495Z" fill="#C4C4C4"/>
</g>
</g>
<defs>
<clipPath id="clip0">
<rect width="1065.7" height="878.906" fill="white" transform="translate(0.441345 0.730957)"/>
</clipPath>
</defs>
</svg>
