<svg width="1920" height="1080" viewBox="0 0 1920 1080" fill="none" xmlns="http://www.w3.org/2000/svg">
<g id="header 2" clip-path="url(#clip0)">
<g id="header 1">
<g id="Desktop   3">
<path id="Vector" d="M1920 0H0V1080H1920V0Z" fill="#5BCEFF"/>
<g id="Sun Main" opacity="0.75">
<path id="Sun" opacity="0.75" d="M952 1367C1227.04 1367 1450 1144.04 1450 869C1450 593.962 1227.04 371 952 371C676.962 371 454 593.962 454 869C454 1144.04 676.962 1367 952 1367Z" fill="#91DEFF" fill-opacity="0.1"/>
<path id="Sun 2" opacity="0.75" d="M952.5 1299C1190.26 1299 1383 1106.26 1383 868.5C1383 630.741 1190.26 438 952.5 438C714.741 438 522 630.741 522 868.5C522 1106.26 714.741 1299 952.5 1299Z" fill="#91FFF8" fill-opacity="0.1"/>
<path id="Sun 3" opacity="0.75" d="M952 1231C1151.93 1231 1314 1068.93 1314 869C1314 669.073 1151.93 507 952 507C752.073 507 590 669.073 590 869C590 1068.93 752.073 1231 952 1231Z" fill="#91FFBD" fill-opacity="0.2"/>
<path id="Sun 4" opacity="0.75" d="M952.5 1168C1117.91 1168 1252 1033.91 1252 868.5C1252 703.091 1117.91 569 952.5 569C787.091 569 653 703.091 653 868.5C653 1033.91 787.091 1168 952.5 1168Z" fill="#B4FF91" fill-opacity="0.2"/>
<path id="Sun 5" opacity="0.75" d="M952 1112C1086.21 1112 1195 1003.21 1195 869C1195 734.795 1086.21 626 952 626C817.795 626 709 734.795 709 869C709 1003.21 817.795 1112 952 1112Z" fill="#F8FFA4" fill-opacity="0.2"/>
<path id="Sun 6" opacity="0.75" d="M952 1054C1054.17 1054 1137 971.173 1137 869C1137 766.827 1054.17 684 952 684C849.827 684 767 766.827 767 869C767 971.173 849.827 1054 952 1054Z" fill="#FFE5A4" fill-opacity="0.2"/>
</g>
<g id="Landscape">
<g id="Group 4">
<path id="Rectangle 26" d="M365.249 719.512H431.071V785.333H365.249V719.512Z" fill="#A77160"/>
<path id="Subtract" fill-rule="evenodd" clip-rule="evenodd" d="M363.517 690.697C363.517 688.204 365.355 686.091 367.824 685.746L379.942 684.049C380.236 684.007 380.534 683.993 380.831 684.004L396.815 684.63C397.105 684.641 397.394 684.678 397.679 684.739L409.433 687.288L421.615 690.588L429.42 693.152C431.472 693.826 432.86 695.742 432.86 697.902V726.441H423.276V774.075H432.86V976.066C432.86 978.827 430.621 981.066 427.86 981.066H368.517C365.756 981.066 363.517 978.827 363.517 976.066V774.936H371.312V727.302H363.517V690.697Z" fill="#C0826D"/>
<path id="Rectangle 27" d="M434.535 779.266H361.785V800.052H434.535V779.266Z" fill="#BD7B66"/>
<path id="Rectangle 28" d="M341 779.266H413.75V788.793H341V779.266Z" fill="#C0826D"/>
<g id="Rectangle 30">
<mask id="mask0" mask-type="alpha" maskUnits="userSpaceOnUse" x="342" y="758" width="30" height="22">
<g id="mask0">
<g id="path 6 inside 1">
<path id="Vector 2" d="M342.732 758.481H371.312V779.266H342.732V758.481Z" fill="white"/>
</g>
</g>
</mask>
<g mask="url(#mask0)">
<g id="Group">
<path id="Vector 3" d="M342.732 758.481H371.312V779.266H342.732V758.481Z" fill="#CBC7C6" fill-opacity="0.65" stroke="#A0A0A0" stroke-width="2"/>
</g>
</g>
</g>
<g id="Rectangle 31">
<mask id="mask1" mask-type="alpha" maskUnits="userSpaceOnUse" x="423" y="758" width="40" height="22">
<g id="mask1">
<g id="path 7 inside 2">
<path id="Vector 4" d="M423.276 758.481H462.25V779.266H423.276V758.481Z" fill="white"/>
</g>
</g>
</mask>
<g mask="url(#mask1)">
<g id="Group_2">
<path id="Vector 5" d="M423.276 758.481H462.25V779.266H423.276V758.481Z" fill="#CBC7C6" fill-opacity="0.65" stroke="#A0A0A0" stroke-width="2"/>
</g>
</g>
</g>
<path id="Rectangle 29" d="M390.366 779.266H463.116V788.793H390.366V779.266Z" fill="#C0826D"/>
</g>
<g id="Tree Lines">
<g id="Tree Line">
<path id="Polygon 8" d="M984.77 778.577L1046.1 918.401H923.435L984.77 778.577Z" fill="#5A9E58"/>
<path id="Polygon 9" d="M1015.43 799.292L1076.76 939.115H954.095L1015.43 799.292Z" fill="#5A9E58"/>
<path id="Polygon 10" d="M1072.15 778.577L1111.45 912.112H1032.85L1072.15 778.577Z" fill="#5A9E58"/>
<path id="Polygon 4" d="M605.22 842.474L649.827 966.761H560.613L605.22 842.474Z" fill="#5A9E58"/>
<path id="Polygon 5" d="M811.851 793.867L750.516 933.69H873.186L811.851 793.867Z" fill="#5A9E58"/>
<path id="Polygon 6" d="M747.095 816.491L704.877 947.807H789.312L747.095 816.491Z" fill="#5A9E58"/>
<path id="Polygon 1" d="M1227.95 797.438L1273.33 937.092H1182.57L1227.95 797.438Z" fill="#5A9E58"/>
<path id="Polygon 7" d="M1164.23 821.486L1218.92 949.472H1109.53L1164.23 821.486Z" fill="#5A9E58"/>
<path id="Polygon 2" d="M1268.75 805.233L1319.47 921.012H1218.04L1268.75 805.233Z" fill="#5A9E58"/>
<path id="Polygon 3" d="M1355.82 817L1417.16 956.823H1294.49L1355.82 817Z" fill="#5A9E58"/>
</g>
<g id="Tree Line 2">
<path id="Polygon 3 2" d="M426.259 805L485.152 999H367.366L426.259 805Z" fill="#5A9E58"/>
<path id="Polygon 8 2" d="M866.048 843.973L925.15 982.742H806.947L866.048 843.973Z" fill="#5A9E58"/>
<path id="Polygon 9 2" d="M897.659 834.94L956.923 963.871H838.395L897.659 834.94Z" fill="#5A9E58"/>
<path id="Polygon 10 2" d="M952.321 822.047L990.264 939.374H914.377L952.321 822.047Z" fill="#5A9E58"/>
<path id="Polygon 4 2" d="M463.067 818.857L506.194 971.502H419.94L463.067 818.857Z" fill="#5A9E58"/>
<path id="Polygon 11" d="M377.759 811.929L429.512 964.574H326.006L377.759 811.929Z" fill="#5A9E58"/>
<path id="Polygon 5 2" d="M701.672 855.665L642.57 994.434L760.773 955.552L701.672 855.665Z" fill="#5A9E58"/>
<path id="Polygon 6 2" d="M649.742 831.415L608.865 980.163H690.619L649.742 831.415Z" fill="#5A9E58"/>
</g>
<g id="Tree Line 3">
<path id="Polygon 11 2" d="M1594.45 864.366L1533.12 1004.19H1655.78L1594.45 864.366Z" fill="#5A9E58"/>
<path id="Polygon 10 3" d="M1129.99 825.393L1090.69 958.928H1169.29L1129.99 825.393Z" fill="#5A9E58"/>
<path id="Polygon 5 3" d="M1482.09 851.855L1543.43 991.679H1420.76L1482.09 851.855Z" fill="#5A9E58"/>
<path id="Polygon 6 3" d="M1532.54 864.366L1574.75 995.681H1490.32L1532.54 864.366Z" fill="#5A9E58"/>
</g>
<g id="Tree Line 4">
<path id="Polygon 8 3" d="M295.682 843.973L354.784 982.742H236.581L295.682 843.973Z" fill="#5A9E58"/>
<path id="Polygon 9 3" d="M327.293 834.94L386.557 963.871H268.029L327.293 834.94Z" fill="#5A9E58"/>
<path id="Polygon 10 4" d="M224.813 873L262.757 990.327H186.87L224.813 873Z" fill="#5A9E58"/>
<path id="Polygon 11 3" d="M102.759 832L154.512 984.645H51.0062L102.759 832Z" fill="#5A9E58"/>
<path id="Polygon 6 4" d="M172.877 849L132 997.748H213.754L172.877 849Z" fill="#5A9E58"/>
<path id="Polygon 4 3" d="M49.7992 855L92.9265 1007.65H6.67188L49.7992 855Z" fill="#5A9E58"/>
<path id="Polygon 3 3" d="M-0.107128 831L58.7858 1025H-59L-0.107128 831Z" fill="#5A9E58"/>
<path id="Polygon 1 2" d="M574.931 798.304L618.668 970.652H531.195L574.931 798.304Z" fill="#5A9E58"/>
<path id="Polygon 7 2" d="M511.708 838.143L564.586 982.994H458.83L511.708 838.143Z" fill="#5A9E58"/>
<path id="Polygon 2 2" d="M711.457 867.966L760.325 982.872H662.59L711.457 867.966Z" fill="#5A9E58"/>
</g>
</g>
<g id="Dunes">
<path id="Hills A" d="M351.78 955.063C259.275 960.052 123.34 975.377 0 968.487L1.20172 1068.52L1920 996.922V830.349C1884.76 828.971 1886.62 806.759 1692.94 818.656C1474.41 832.081 1538.37 831.412 1378.47 853.732C1273.17 868.43 1315.92 862.687 1167.94 886.21C1064.65 902.628 958.431 897.123 794.836 902.391C645.066 907.214 514.764 946.272 351.78 955.063Z" fill="#DED688"/>
</g>
<g id="Grass">
<g id="Group 1">
<path id="Vector 4_2" d="M14.5193 914.464C12.127 930.172 -15.4767 967.809 25.598 1023.06C7.21775 1044.99 12.5822 1035.94 8.14827 1025.59C-13.8205 974.315 -1.10257 936.66 14.5193 914.464Z" fill="#54CA6E"/>
<path id="Vector 5_2" d="M45.7453 934.522C43.3798 949.679 31.0221 952.277 -20.8158 1021.95C-19.11 1040.7 3.46551 1032.41 5.90608 1021.95C18.5725 967.63 45.7453 957.473 45.7453 934.522Z" fill="#54CA6E"/>
</g>
<g id="Group 2">
<path id="Vector 3_2" d="M1427.07 902.203C1426 913.087 1407.23 955.063 1447.07 983.639C1445.95 996.729 1424.97 990.963 1422.57 983.639C1410.15 945.629 1415.66 917.414 1427.07 902.203Z" fill="#54CA6E"/>
<path id="Vector 2_2" d="M1375.94 924.842C1438.53 987.095 1404.64 978.718 1419.18 1005.47C1435.48 1021.4 1432.06 1014.03 1431.59 1005.85C1429.88 976.359 1406.12 943.528 1375.94 924.842Z" fill="#54CA6E"/>
<path id="Vector 10" d="M1748.36 930.017C1758.75 983.403 1744.37 967.413 1742.53 986.084C1745.33 999.846 1746.14 994.902 1748.73 990.567C1758.05 974.94 1757.29 949.983 1748.36 930.017Z" fill="#54CA6E"/>
<path id="Vector 11" d="M1730.67 935.572C1758.55 982.271 1739.59 972.107 1744.2 990.294C1751.5 1002.29 1750.58 997.365 1751.55 992.41C1755.02 974.545 1745.84 951.326 1730.67 935.572Z" fill="#54CA6E"/>
<path id="Vector 8" d="M1438.87 921.696C1423 983.072 1439.61 967.416 1439.81 990.204C1435.58 1005.99 1435.19 999.883 1432.88 994.07C1424.52 973.112 1427.63 943.43 1438.87 921.696Z" fill="#54CA6E"/>
<path id="Vector 4 2" d="M1299.74 916.956C1300.84 927.947 1283.79 970.444 1320.62 997.068C1322.12 1010.26 1301.82 1009.71 1298.78 1002.74C1284.85 970.879 1290.72 933.915 1299.74 916.956Z" fill="#54CA6E"/>
<path id="Vector 5 2" d="M1352.26 944.755C1348.11 950.911 1327.82 958.212 1340.42 993.385C1335.59 1000.83 1324.53 996.567 1324.43 991.665C1323.95 966.224 1337.26 950.937 1352.26 944.755Z" fill="#54CA6E"/>
<path id="Vector 9" d="M1325.82 941.206C1323.65 950.3 1318.3 952.15 1330.9 987.323C1326.06 994.767 1313.83 989.896 1314.91 985.603C1319.32 968.054 1314.91 956.795 1325.82 941.206Z" fill="#54CA6E"/>
<path id="Vector 7" d="M1279.52 936.009C1281.13 954.004 1287.89 965.595 1306.14 983.687C1303.51 992.167 1291.71 991.074 1290.29 986.382C1284.92 968.684 1275.61 952.416 1279.52 936.009Z" fill="#54CA6E"/>
<path id="Vector 6" d="M1329.92 922.152C1286.99 987.668 1315.37 981.606 1301.52 1008.89C1290.32 1025.66 1293.16 1014.8 1293.09 1006.47C1292.81 976.447 1308.63 942.23 1329.92 922.152Z" fill="#54CA6E"/>
</g>
<g id="Group 8">
<path id="Vector 10 2" d="M1703.28 917C1700.71 927.837 1704.62 974.554 1657.59 988.694C1654.34 1001.67 1676.05 1003.16 1680.72 996.915C1704.96 964.49 1709.05 935.475 1703.28 917Z" fill="#54CA6E"/>
<path id="Vector 11 2" d="M1680.63 925.146C1678.58 936.212 1691.87 980.887 1652.88 1004.67C1650.23 1017.94 1670.5 1019.18 1674.14 1012.37C1690.79 981.236 1688.15 943.169 1680.63 925.146Z" fill="#54CA6E"/>
<path id="Vector 14" d="M1712.52 926.847C1706.75 936.515 1703.72 983.026 1658.9 991.807C1651.82 1003.33 1670.4 1011.53 1676.17 1006.4C1702.58 982.976 1713.31 946.357 1712.52 926.847Z" fill="#54CA6E"/>
<path id="Vector 13" d="M1664.73 939.12C1666.67 947.183 1689.36 973.463 1669.73 1000.84C1671.93 1010.56 1686.26 1005.51 1686.7 999.857C1688.72 974.014 1675.36 949.098 1664.73 939.12Z" fill="#54CA6E"/>
<path id="Vector 12" d="M1765.04 939.7C1761.23 949.655 1765.07 955.013 1730.62 979.292C1730.38 989.521 1745.01 993.272 1746.75 988.533C1753.89 969.162 1765.27 961.647 1765.04 939.7Z" fill="#54CA6E"/>
</g>
<g id="Group 5">
<path id="Vector 3 2" d="M639.271 923.691C637.714 935.521 658.116 964.111 587.104 998.608C585.042 1012.79 619.101 1018.37 623.672 1011.26C647.393 974.325 648.323 942.915 639.271 923.691Z" fill="#54CA6E"/>
<path id="Vector 4 3" d="M613.103 949.319C617.218 959.943 632.972 974.333 591.377 1032.69C596.152 1045.5 626.149 1036.19 626.603 1028.3C628.963 987.368 629.128 961.814 613.103 949.319Z" fill="#54CA6E"/>
<path id="Vector 2 2" d="M676.09 921.781C653.774 998.137 635.319 967.262 617.847 994.169C612.318 1013.85 622.726 1015.13 630.602 1008.81C658.994 985.996 676.659 950.149 676.09 921.781Z" fill="#54CA6E"/>
</g>
</g>
<path id="Vector 4 4" d="M1920 1146H0V981.117C80.6947 987.64 193.072 986.77 268.093 986.77C414.144 986.77 771.601 948.502 969.67 955.965C1127.95 961.929 1386.48 981.117 1920 955.965V1146Z" fill="#54CA6E"/>
<path id="WolkD" d="M-482.705 564.049C-261.702 561.171 -422.541 670.582 -173.788 614.978C-173.5 618.284 -173.594 606.69 -98.8723 628.402C-12.6485 653.456 86.1887 616.287 173.507 597.656C198.942 592.23 198.051 555.3 178.27 539.63C144.927 513.214 151.582 534.26 113.076 500.054C84.398 474.579 40.3658 506.385 26.0773 466.107C16.3576 438.708 -10.1511 458.063 -35.6503 432.545C-66.6329 401.539 -131.912 389.616 -179.19 404.901C-231.622 421.852 -228.125 427.059 -302.511 421.596C-348.178 418.241 -359.099 454.48 -405.458 471.124C-471.347 494.78 -486.582 472.133 -518.147 521.514C-543.019 560.422 -487.971 568.488 -482.705 564.049Z" fill="#B0E7FF"/>
<path id="WolkC" d="M1668.21 730.081C1884.73 685.727 1785.66 767.417 2019.53 666.062C2020.44 669.255 2097.96 622.491 2175.43 629.776C2264.82 638.182 2325.52 616.895 2407.78 582.189C2431.74 572.08 2399.31 558.543 2374.29 555.281C2336.62 550.371 2285.6 581.638 2241.35 555.276C2208.4 535.644 2171.13 575.158 2149.52 538.282C2134.83 513.198 2112.43 537.189 2082.59 516.916C2046.33 492.284 1979.98 492.84 1936.41 516.736C1888.1 543.238 1892.51 547.695 1818.42 556.306C1772.94 561.592 1769.02 599.238 1726.62 624.296C1666.35 659.912 1647.13 640.531 1625.4 694.963C1608.29 737.852 1663.87 735.43 1668.21 730.081Z" fill="#AEDFF3"/>
<path id="WolkB" d="M317.295 370.819C96.92 393.968 194.538 432.955 -58.0497 384.952C-58.0497 389.663 -145.359 355.764 -217.901 395.674C-301.609 441.727 -365.795 436.122 -454.382 420.528C-480.187 415.985 -452.674 384.952 -429.489 370.819C-394.592 349.547 -336.996 372.525 -301.609 319.405C-275.255 279.845 -228.639 319.405 -217.901 260.681C-210.596 220.734 -182.514 244.842 -159.329 205.612C-131.159 157.945 -68.5436 138.115 -18.7581 148.837C60.6497 165.937 31.1051 186.118 87.8912 186.118C134.26 186.118 173.268 182.106 212.355 214.627C287.033 276.763 247.742 271.402 317.295 296.257C407.678 328.554 346.987 357.255 317.295 370.819Z" fill="#B0E7FF"/>
<path id="WolkA" d="M2227.08 655.793C2006.71 678.941 2104.33 717.928 1851.74 669.925C1851.74 674.636 1764.43 640.737 1691.89 680.647C1608.18 726.7 1543.99 721.095 1455.41 705.501C1429.6 700.959 1457.11 669.925 1480.3 655.793C1515.2 634.52 1572.79 657.498 1608.18 604.378C1634.53 564.818 1681.15 604.378 1691.89 545.654C1699.19 505.707 1727.27 529.816 1750.46 490.585C1778.63 442.918 1841.24 423.089 1891.03 433.81C1970.44 450.911 1940.89 471.091 1997.68 471.091C2044.05 471.091 2083.06 467.079 2122.14 499.601C2196.82 561.736 2157.53 556.376 2227.08 581.23C2317.47 613.527 2256.77 642.228 2227.08 655.793Z" fill="#B0E7FF"/>
</g>
</g>
</g>
</g>
<defs>
<clipPath id="clip0">
<rect width="1920" height="1080" fill="white"/>
</clipPath>
</defs>
</svg>
