<svg width="1920" height="1080" viewBox="0 0 1920 1080" fill="none" xmlns="http://www.w3.org/2000/svg">
<g id="Desktop - 3" clip-path="url(#clip0)">
<rect width="1920" height="1080" fill="#5BCEFF"/>
<g id="Landscape">
<circle id="Sun" cx="996" cy="882" r="498" fill="url(#paint0_radial)"/>
<g id="Group 4">
<rect id="Rectangle 26" width="65.8215" height="65.8215" transform="matrix(-1 0 0 1 550.248 719.496)" fill="url(#paint1_linear)"/>
<path id="Subtract" fill-rule="evenodd" clip-rule="evenodd" d="M482.694 690.681C482.694 688.188 484.532 686.075 487.001 685.73L499.119 684.033C499.413 683.991 499.711 683.977 500.008 683.988L515.992 684.614C516.282 684.625 516.571 684.662 516.856 684.723L528.61 687.272L540.792 690.572L548.597 693.136C550.649 693.81 552.037 695.726 552.037 697.886V726.425H542.453V774.059H552.037V976.05C552.037 978.811 549.798 981.05 547.037 981.05H487.694C484.933 981.05 482.694 978.811 482.694 976.05V774.92H490.489V727.286H482.694V690.681Z" fill="url(#paint2_linear)"/>
<rect id="Rectangle 27" x="480.962" y="779.25" width="72.75" height="20.7857" fill="url(#paint3_linear)"/>
<path id="Rectangle 28" d="M460.177 779.25H532.927V788.777H460.177V779.25Z" fill="url(#paint4_linear)"/>
<g id="Rectangle 30">
<mask id="path-6-inside-1" fill="white">
<path d="M461.909 758.465H490.489V779.25H461.909V758.465Z"/>
</mask>
<path d="M461.909 758.465H490.489V779.25H461.909V758.465Z" fill="url(#paint5_linear)" stroke="#A0A0A0" stroke-width="2" mask="url(#path-6-inside-1)"/>
</g>
<g id="Rectangle 31">
<mask id="path-7-inside-2" fill="white">
<path d="M542.453 758.465H581.427V779.25H542.453V758.465Z"/>
</mask>
<path d="M542.453 758.465H581.427V779.25H542.453V758.465Z" fill="url(#paint6_linear)" stroke="#A0A0A0" stroke-width="2" mask="url(#path-7-inside-2)"/>
</g>
<path id="Rectangle 29" d="M509.543 779.25H582.293V788.777H509.543V779.25Z" fill="url(#paint7_linear)"/>
</g>
<g id="Tree Lines">
<g id="Tree Line">
<path id="Polygon 8" d="M984.77 778.577L1046.1 918.401H923.435L984.77 778.577Z" fill="#5A9E58"/>
<path id="Polygon 9" d="M1015.43 799.292L1076.76 939.115H954.095L1015.43 799.292Z" fill="#5A9E58"/>
<path id="Polygon 10" d="M1072.15 778.577L1111.45 912.112H1032.85L1072.15 778.577Z" fill="#5A9E58"/>
<path id="Polygon 4" d="M605.22 842.474L649.827 966.761H560.613L605.22 842.474Z" fill="#5A9E58"/>
<path id="Polygon 5" d="M811.851 793.867L750.516 933.69H873.186L811.851 793.867Z" fill="#5A9E58"/>
<path id="Polygon 6" d="M747.095 816.491L704.877 947.807H789.312L747.095 816.491Z" fill="#5A9E58"/>
<path id="Polygon 1" d="M1227.95 797.438L1273.33 937.092H1182.57L1227.95 797.438Z" fill="#5A9E58"/>
<path id="Polygon 7" d="M1164.23 821.486L1218.92 949.472H1109.53L1164.23 821.486Z" fill="#5A9E58"/>
<path id="Polygon 2" d="M1268.75 805.233L1319.47 921.012H1218.04L1268.75 805.233Z" fill="#5A9E58"/>
<path id="Polygon 3" d="M1355.82 817L1417.16 956.823H1294.49L1355.82 817Z" fill="#5A9E58"/>
</g>
<g id="Tree Line_2">
<path id="Polygon 3_2" d="M426.259 805L485.152 999H367.366L426.259 805Z" fill="#5A9E58"/>
<path id="Polygon 8_2" d="M866.048 843.973L925.15 982.742H806.947L866.048 843.973Z" fill="#5A9E58"/>
<path id="Polygon 9_2" d="M897.659 834.94L956.923 963.871H838.395L897.659 834.94Z" fill="#5A9E58"/>
<path id="Polygon 10_2" d="M952.321 822.047L990.264 939.374H914.377L952.321 822.047Z" fill="#5A9E58"/>
<path id="Polygon 4_2" d="M463.067 818.857L506.194 971.502H419.94L463.067 818.857Z" fill="#5A9E58"/>
<path id="Polygon 11" d="M377.759 811.929L429.512 964.574H326.006L377.759 811.929Z" fill="#5A9E58"/>
<path id="Polygon 5_2" d="M701.672 855.665L642.57 994.434L760.773 955.552L701.672 855.665Z" fill="#5A9E58"/>
<path id="Polygon 6_2" d="M649.742 831.415L608.865 980.163H690.619L649.742 831.415Z" fill="#5A9E58"/>
</g>
<g id="Tree Line_3">
<path id="Polygon 11_2" d="M1594.45 864.366L1533.12 1004.19H1655.78L1594.45 864.366Z" fill="#5A9E58"/>
<path id="Polygon 10_3" d="M1129.99 825.393L1090.69 958.928H1169.29L1129.99 825.393Z" fill="#5A9E58"/>
<path id="Polygon 5_3" d="M1482.09 851.855L1543.43 991.679H1420.76L1482.09 851.855Z" fill="#5A9E58"/>
<path id="Polygon 6_3" d="M1532.54 864.366L1574.75 995.681H1490.32L1532.54 864.366Z" fill="#5A9E58"/>
</g>
<g id="Tree Line_4">
<path id="Polygon 8_3" d="M295.682 843.973L354.784 982.742H236.581L295.682 843.973Z" fill="#5A9E58"/>
<path id="Polygon 9_3" d="M327.293 834.94L386.557 963.871H268.029L327.293 834.94Z" fill="#5A9E58"/>
<path id="Polygon 10_4" d="M224.813 873L262.757 990.327H186.87L224.813 873Z" fill="#5A9E58"/>
<path id="Polygon 11_3" d="M102.759 832L154.512 984.645H51.0062L102.759 832Z" fill="#5A9E58"/>
<path id="Polygon 6_4" d="M172.877 849L132 997.748H213.754L172.877 849Z" fill="#5A9E58"/>
<path id="Polygon 4_3" d="M49.7991 855L92.9264 1007.65H6.67182L49.7991 855Z" fill="#5A9E58"/>
<path id="Polygon 3_3" d="M-0.107127 831L58.7858 1025H-59L-0.107127 831Z" fill="#5A9E58"/>
<path id="Polygon 1_2" d="M574.931 798.304L618.668 970.652H531.195L574.931 798.304Z" fill="#5A9E58"/>
<path id="Polygon 7_2" d="M511.708 838.143L564.586 982.994H458.83L511.708 838.143Z" fill="#5A9E58"/>
<path id="Polygon 2_2" d="M711.457 867.966L760.325 982.872H662.59L711.457 867.966Z" fill="#5A9E58"/>
</g>
</g>
<g id="Dunes">
<path id="Hills-A" d="M351.78 955.063C259.275 960.052 123.34 975.377 0 968.487L1.20172 1068.52L1920 996.922V830.349C1884.76 828.971 1886.62 806.759 1692.94 818.656C1474.41 832.081 1538.37 831.412 1378.47 853.732C1273.17 868.43 1315.92 862.687 1167.94 886.21C1064.65 902.628 958.431 897.123 794.836 902.391C645.066 907.214 514.764 946.272 351.78 955.063Z" fill="#DED688"/>
</g>
<g id="Grass">
<g id="Group 1">
<path id="Vector 4" d="M14.5193 914.464C12.127 930.172 -15.4767 967.809 25.598 1023.06C7.21773 1044.99 12.5822 1035.94 8.14824 1025.59C-13.8205 974.315 -1.1026 936.66 14.5193 914.464Z" fill="#54CA6E"/>
<path id="Vector 5" d="M45.7453 934.522C43.3798 949.679 31.0221 952.277 -20.8158 1021.95C-19.11 1040.7 3.46551 1032.41 5.90608 1021.95C18.5725 967.63 45.7453 957.473 45.7453 934.522Z" fill="#54CA6E"/>
</g>
<g id="Group 2">
<path id="Vector 3" d="M1427.07 902.203C1426 913.087 1407.23 955.063 1447.07 983.639C1445.95 996.729 1424.97 990.963 1422.57 983.639C1410.15 945.629 1415.66 917.414 1427.07 902.203Z" fill="#54CA6E"/>
<path id="Vector 2" d="M1375.94 924.842C1438.53 987.095 1404.64 978.718 1419.18 1005.47C1435.48 1021.4 1432.06 1014.03 1431.59 1005.85C1429.88 976.359 1406.12 943.528 1375.94 924.842Z" fill="#54CA6E"/>
<path id="Vector 10" d="M1748.36 930.017C1758.75 983.403 1744.37 967.413 1742.53 986.084C1745.33 999.846 1746.14 994.902 1748.73 990.567C1758.05 974.94 1757.29 949.983 1748.36 930.017Z" fill="#54CA6E"/>
<path id="Vector 11" d="M1730.67 935.572C1758.55 982.271 1739.59 972.107 1744.2 990.294C1751.5 1002.29 1750.58 997.365 1751.55 992.41C1755.02 974.545 1745.84 951.326 1730.67 935.572Z" fill="#54CA6E"/>
<path id="Vector 8" d="M1438.87 921.696C1423 983.072 1439.61 967.416 1439.81 990.204C1435.58 1005.99 1435.19 999.883 1432.88 994.07C1424.52 973.112 1427.63 943.43 1438.87 921.696Z" fill="#54CA6E"/>
<path id="Vector 4_2" d="M1299.74 916.956C1300.84 927.947 1283.79 970.444 1320.62 997.068C1322.12 1010.26 1301.82 1009.71 1298.78 1002.74C1284.85 970.879 1290.72 933.915 1299.74 916.956Z" fill="#54CA6E"/>
<path id="Vector 5_2" d="M1352.26 944.755C1348.11 950.911 1327.82 958.212 1340.42 993.385C1335.59 1000.83 1324.53 996.567 1324.43 991.665C1323.95 966.224 1337.26 950.937 1352.26 944.755Z" fill="#54CA6E"/>
<path id="Vector 9" d="M1325.82 941.206C1323.65 950.3 1318.3 952.15 1330.9 987.323C1326.06 994.767 1313.83 989.896 1314.91 985.603C1319.32 968.054 1314.91 956.795 1325.82 941.206Z" fill="#54CA6E"/>
<path id="Vector 7" d="M1279.52 936.009C1281.13 954.004 1287.89 965.595 1306.14 983.687C1303.51 992.167 1291.71 991.074 1290.29 986.382C1284.92 968.684 1275.61 952.416 1279.52 936.009Z" fill="#54CA6E"/>
<path id="Vector 6" d="M1329.92 922.152C1286.99 987.668 1315.37 981.606 1301.52 1008.89C1290.32 1025.66 1293.16 1014.8 1293.09 1006.47C1292.81 976.447 1308.63 942.23 1329.92 922.152Z" fill="#54CA6E"/>
</g>
<g id="Group 8">
<path id="Vector 10_2" d="M1703.28 917C1700.71 927.837 1704.62 974.554 1657.59 988.694C1654.34 1001.67 1676.05 1003.16 1680.72 996.915C1704.96 964.49 1709.05 935.475 1703.28 917Z" fill="#54CA6E"/>
<path id="Vector 11_2" d="M1680.63 925.146C1678.58 936.212 1691.87 980.887 1652.88 1004.67C1650.23 1017.94 1670.5 1019.18 1674.14 1012.37C1690.79 981.236 1688.15 943.169 1680.63 925.146Z" fill="#54CA6E"/>
<path id="Vector 14" d="M1712.52 926.847C1706.75 936.515 1703.72 983.026 1658.9 991.807C1651.82 1003.33 1670.4 1011.53 1676.17 1006.4C1702.58 982.976 1713.31 946.357 1712.52 926.847Z" fill="#54CA6E"/>
<path id="Vector 13" d="M1664.73 939.12C1666.67 947.183 1689.36 973.463 1669.73 1000.84C1671.93 1010.56 1686.26 1005.51 1686.7 999.857C1688.72 974.014 1675.36 949.098 1664.73 939.12Z" fill="#54CA6E"/>
<path id="Vector 12" d="M1765.04 939.7C1761.23 949.655 1765.07 955.013 1730.62 979.292C1730.38 989.521 1745.01 993.272 1746.75 988.533C1753.89 969.162 1765.27 961.647 1765.04 939.7Z" fill="#54CA6E"/>
</g>
<g id="Group 5">
<path id="Vector 3_2" d="M639.271 923.691C637.714 935.521 658.116 964.111 587.104 998.608C585.042 1012.79 619.101 1018.37 623.672 1011.26C647.393 974.325 648.323 942.915 639.271 923.691Z" fill="#54CA6E"/>
<path id="Vector 4_3" d="M613.103 949.319C617.218 959.943 632.972 974.333 591.377 1032.69C596.152 1045.5 626.149 1036.19 626.603 1028.3C628.963 987.368 629.128 961.814 613.103 949.319Z" fill="#54CA6E"/>
<path id="Vector 2_2" d="M676.09 921.781C653.774 998.137 635.319 967.262 617.847 994.169C612.318 1013.85 622.726 1015.13 630.602 1008.81C658.994 985.996 676.659 950.149 676.09 921.781Z" fill="#54CA6E"/>
</g>
</g>
<path id="Vector 4_4" d="M1920 1146H0V981.117C80.6947 987.64 193.072 986.77 268.093 986.77C414.144 986.77 771.601 948.502 969.67 955.965C1127.95 961.929 1386.48 981.117 1920 955.965V1146Z" fill="#54CA6E"/>
<path id="WolkD" d="M-482.705 564.049C-261.702 561.171 -422.541 670.582 -173.788 614.978C-173.5 618.284 -173.594 606.69 -98.8723 628.402C-12.6485 653.456 86.1887 616.287 173.507 597.656C198.942 592.23 198.051 555.3 178.27 539.63C144.927 513.214 151.582 534.26 113.076 500.054C84.398 474.579 40.3658 506.385 26.0773 466.107C16.3576 438.708 -10.1511 458.063 -35.6503 432.545C-66.6329 401.539 -131.912 389.616 -179.19 404.901C-231.622 421.852 -228.125 427.059 -302.511 421.596C-348.178 418.241 -359.099 454.48 -405.458 471.124C-471.347 494.78 -486.582 472.133 -518.147 521.514C-543.019 560.422 -487.971 568.488 -482.705 564.049Z" fill="#B0E7FF"/>
<path id="WolkC" d="M1668.21 730.081C1884.73 685.727 1785.66 767.417 2019.53 666.062C2020.44 669.255 2097.96 622.491 2175.43 629.776C2264.82 638.182 2325.52 616.895 2407.78 582.189C2431.74 572.08 2399.31 558.543 2374.29 555.281C2336.62 550.371 2285.6 581.638 2241.35 555.276C2208.4 535.644 2171.13 575.158 2149.52 538.282C2134.83 513.198 2112.43 537.189 2082.59 516.916C2046.33 492.284 1979.98 492.84 1936.41 516.736C1888.1 543.238 1892.51 547.695 1818.42 556.306C1772.94 561.592 1769.02 599.238 1726.62 624.296C1666.35 659.912 1647.13 640.531 1625.4 694.963C1608.29 737.852 1663.87 735.43 1668.21 730.081Z" fill="#AEDFF3"/>
<path id="WolkB" d="M317.295 370.819C96.92 393.968 194.538 432.955 -58.0497 384.952C-58.0497 389.663 -145.359 355.764 -217.901 395.674C-301.609 441.727 -365.795 436.122 -454.382 420.528C-480.187 415.985 -452.674 384.952 -429.489 370.819C-394.592 349.547 -336.996 372.525 -301.609 319.405C-275.255 279.845 -228.639 319.405 -217.901 260.681C-210.596 220.734 -182.514 244.842 -159.329 205.612C-131.159 157.945 -68.5436 138.115 -18.7581 148.837C60.6497 165.937 31.1049 186.118 87.891 186.118C134.26 186.118 173.268 182.106 212.355 214.627C287.033 276.763 247.742 271.402 317.295 296.257C407.678 328.554 346.987 357.255 317.295 370.819Z" fill="#B0E7FF"/>
<path id="WolkA" d="M2227.08 655.793C2006.71 678.941 2104.33 717.928 1851.74 669.925C1851.74 674.636 1764.43 640.737 1691.89 680.647C1608.18 726.7 1543.99 721.095 1455.41 705.501C1429.6 700.959 1457.11 669.925 1480.3 655.793C1515.2 634.52 1572.79 657.498 1608.18 604.378C1634.53 564.818 1681.15 604.378 1691.89 545.654C1699.19 505.707 1727.27 529.816 1750.46 490.585C1778.63 442.918 1841.24 423.089 1891.03 433.81C1970.44 450.911 1940.89 471.091 1997.68 471.091C2044.05 471.091 2083.06 467.079 2122.14 499.601C2196.82 561.736 2157.53 556.376 2227.08 581.23C2317.47 613.527 2256.77 642.228 2227.08 655.793Z" fill="#B0E7FF"/>
</g>
</g>
<defs>
<radialGradient id="paint0_radial" cx="0" cy="0" r="1" gradientUnits="userSpaceOnUse" gradientTransform="translate(996 882) rotate(90) scale(498)">
<stop stop-color="#F5D216"/>
<stop offset="0.296875" stop-color="#FFDC81" stop-opacity="0.88"/>
<stop offset="0.645833" stop-color="#FFEC85" stop-opacity="0.62"/>
<stop offset="1" stop-color="#5CFFF5" stop-opacity="0"/>
</radialGradient>
<linearGradient id="paint1_linear" x1="65.8215" y1="32.9058" x2="8.03132e-08" y2="32.9058" gradientUnits="userSpaceOnUse">
<stop stop-color="#C6816B"/>
<stop offset="0.239583" stop-color="#895A4B"/>
<stop offset="0.6875" stop-color="#895A4B"/>
<stop offset="1" stop-color="#C6806B"/>
</linearGradient>
<linearGradient id="paint2_linear" x1="493.86" y1="691.287" x2="539.001" y2="978.876" gradientUnits="userSpaceOnUse">
<stop stop-color="#C98C78"/>
<stop offset="0.9999" stop-color="#BB5838"/>
<stop offset="1" stop-color="#B68C7F"/>
</linearGradient>
<linearGradient id="paint3_linear" x1="517.337" y1="779.25" x2="517.337" y2="800.036" gradientUnits="userSpaceOnUse">
<stop stop-color="#C5765D"/>
<stop offset="0.9999" stop-color="#C4775F"/>
<stop offset="1" stop-color="#C47860"/>
</linearGradient>
<linearGradient id="paint4_linear" x1="496.552" y1="779.25" x2="496.552" y2="824.979" gradientUnits="userSpaceOnUse">
<stop stop-color="#C57D66"/>
<stop offset="0.9999" stop-color="#C4775F"/>
<stop offset="1" stop-color="#C47860"/>
</linearGradient>
<linearGradient id="paint5_linear" x1="476.199" y1="758.465" x2="476.199" y2="858.236" gradientUnits="userSpaceOnUse">
<stop stop-color="#CBC7C6" stop-opacity="0.77"/>
<stop offset="0.9999" stop-color="#C4775F"/>
<stop offset="1" stop-color="#C47860"/>
</linearGradient>
<linearGradient id="paint6_linear" x1="561.94" y1="758.465" x2="561.94" y2="858.236" gradientUnits="userSpaceOnUse">
<stop stop-color="#CBC7C6" stop-opacity="0.77"/>
<stop offset="0.9999" stop-color="#C4775F"/>
<stop offset="1" stop-color="#C47860"/>
</linearGradient>
<linearGradient id="paint7_linear" x1="545.918" y1="779.25" x2="545.918" y2="824.979" gradientUnits="userSpaceOnUse">
<stop stop-color="#C57D66"/>
<stop offset="0.9999" stop-color="#C4775F"/>
<stop offset="1" stop-color="#C47860"/>
</linearGradient>
<clipPath id="clip0">
<rect width="1920" height="1080" fill="white"/>
</clipPath>
</defs>
</svg>
